<svg width="19" height="14" viewBox="0 0 19 14" fill="none" xmlns="http://www.w3.org/2000/svg">
<path d="M12.2087 1H7.03545C3.70216 1 1 3.70216 1 7.03545C1 10.3687 3.70216 13.0709 7.03545 13.0709H12.2087C15.542 13.0709 18.2441 10.3687 18.2441 7.03545C18.2441 3.70216 15.542 1 12.2087 1Z" fill="#8AE574" stroke="#86B16B" stroke-width="0.574805"/>
<path d="M6.62192 8.27646C6.40563 8.27646 6.22432 8.20489 6.07799 8.06177C5.93486 7.91542 5.86328 7.73729 5.86328 7.52737C5.86328 7.31423 5.93486 7.1361 6.07799 6.99297C6.22432 6.84663 6.40563 6.77351 6.62192 6.77351C6.84138 6.77351 7.02273 6.84663 7.16586 6.99297C7.30898 7.1361 7.38055 7.31423 7.38055 7.52737C7.38055 7.73729 7.30898 7.91542 7.16586 8.06177C7.02273 8.20489 6.84138 8.27646 6.62192 8.27646ZM9.07915 9.91781V1.30078H10.1575V9.91781H9.07915ZM12.6243 8.27646C12.408 8.27646 12.2267 8.20489 12.0803 8.06177C11.9372 7.91542 11.8656 7.73729 11.8656 7.52737C11.8656 7.31423 11.9372 7.1361 12.0803 6.99297C12.2267 6.84663 12.408 6.77351 12.6243 6.77351C12.8437 6.77351 13.0251 6.84663 13.1682 6.99297C13.3113 7.1361 13.3829 7.31423 13.3829 7.52737C13.3829 7.73729 13.3113 7.91542 13.1682 8.06177C13.0251 8.20489 12.8437 8.27646 12.6243 8.27646Z" fill="white"/>
</svg>
